<?xml version="1.0" encoding="UTF-8"?>
<svg xmlns="http://www.w3.org/2000/svg" width="256" height="256" viewBox="0 0 256 256">
  <title>Promise — icon</title>
  <defs>
    <linearGradient id="bg" x1="0" y1="0" x2="0" y2="1">
      <stop offset="0" stop-color="#123c54"/>
      <stop offset="1" stop-color="#0a2636"/>
    </linearGradient>
  </defs>
  <rect width="256" height="256" rx="56" ry="56" fill="url(#bg)"/>
  <g transform="translate(43.000,43.000) scale(1.41667)">
  <g transform="translate(-11.079,-8.474)">
   <!-- opaque head base (inset so the band edge has no halo); background-independent -->
   <g transform="translate(71.13157,0) scale(0.996893,1) translate(-71.13157,0)"><path transform="matrix(0.00657895,0,0,-0.00657895,18.5,120.26316)" d="M204 15315 c96 -272 292 -685 539 -1137 60 -108 293 -586 518 -1063 411 -868 411 -868 450 -1024 160 -636 100 -1094 -245 -1864 -35 -79 -167 -348 -291 -598 -447 -893 -567 -1202 -632 -1624 -118 -771 298 -2080 1162 -3660 244 -444 604 -1061 727 -1241 299 -441 740 -779 1483 -1136 189 -90 256 -120 705 -316 409 -178 599 -270 1038 -498 880 -459 1245 -623 1646 -739 472 -136 753 -150 1166 -58 468 103 878 278 1885 803 392 204 596 303 920 445 612 269 739 326 935 424 660 329 1076 658 1358 1075 322 475 1019 1754 1296 2381 476 1073 682 1957 592 2530 -65 410 -174 690 -626 1605 -300 606 -393 813 -476 1055 -175 508 -193 906 -65 1417 39 156 39 156 446 1015 265 561 463 965 572 1166 170 318 296 570 378 762 56 128 156 397 151 403 -2 2 -966 -415 -2142 -926 l-2139 -930 -185 38 c-1398 285 -2702 465 -3375 464 -660 -1 -1850 -163 -3255 -443 l-295 -59 -1265 550 c-696 302 -1657 721 -2137 929 -479 208 -874 379 -877 379 -3 0 14 -56 38 -125z" fill="#f7fafb"/></g>
   <g transform="matrix(0.9823464,0,0,1,1.216138,3.008628e-4)">
    <g transform="translate(0.16,0)">
     <path d="m 18.666016,18.666015 c 2.67433,8.218045 10.605875,17.045986 10.957033,25.689448 0.336083,8.272346 -8.690227,17.016534 -8.525391,25.265618 0.183861,9.201216 7.664859,21.984038 12.322267,29.539059 3.84466,6.2366 11.575962,8.56073 17.914061,11.45897 5.846899,2.67362 12.815437,7.25323 19.332036,7.68946 0.167905,0.0114 0.337411,0.0195 0.50586,0.0234 V 99.999947 l -0.54639,-0.157052 C 66.855342,95.288466 63.426934,89.735296 58.482425,86.365221 53.9845,83.299526 48.142691,83.717953 43.48633,80.884755 31.725352,73.728699 33.840654,59.90937 38.666018,49.333974 c -0.220716,0.04724 30.904456,20.728492 30.904456,20.728492 l 1.599301,-0.01761 0.0021,-42.486261 c -8.257683,0.114017 -23.837934,3.355462 -23.837934,3.355462 z" style="fill:#87acc0;fill-opacity:1;stroke:none"/>
     <path d="m 69.570474,70.062466 -5.025703,9.126919 6.121251,12.14458 h 0.50586 V 69.655129 Z" style="fill:#175e84;fill-opacity:1;stroke:none;stroke-width:1.05263;stroke-dasharray:none;paint-order:markers fill stroke"/>
     <path d="m 44.665708,55.999178 c -1.452906,4.976828 -1.396414,10.234231 3.569079,13.275083 2.426089,1.485724 9.847842,2.191257 9.847862,-2.341694 4e-6,-0.960449 -2.509244,-3.048212 -3.329928,-3.875412 0,1.553301 -1.259199,2.8125 -2.8125,2.8125 -1.553301,0 -2.812258,-1.259199 -2.8125,-2.8125 -1.93e-4,-1.237696 0.808306,-2.330207 1.992188,-2.691201 -0.661364,-0.413958 -1.263231,-0.782568 -1.708471,-1.099917 -2.186562,-1.558486 -2.460506,-1.857334 -4.74573,-3.266859 z" style="fill:#0e3f59;fill-opacity:0.807843;stroke-width:1.05263;stroke-dasharray:none;paint-order:markers fill stroke"/>
     <path d="M 68.83334,65.916656 47.333986,30.914056 18.666016,18.666015 Z" style="fill:#ffffff;fill-opacity:0.421875;stroke-width:1.05263;stroke-dasharray:none;paint-order:markers fill stroke"/>
     <path d="m 18.666016,18.666015 c 0,0 51.533582,44.828768 50.167324,47.25064 C 67.174117,68.857846 28.749199,39.602469 28.749199,39.602469 Z" style="fill:#0d354b;fill-opacity:0.604167;stroke-width:1.05263;stroke-dasharray:none;paint-order:markers fill stroke"/>
    </g>
   </g>
   <g transform="matrix(-0.9823464,0,0,1,141.04701,3.008628e-4)">
    <g transform="translate(0.16,0)">
     <path d="m 18.666016,18.666015 c 2.67433,8.218045 10.605875,17.045986 10.957033,25.689448 0.336083,8.272346 -8.690227,17.016534 -8.525391,25.265618 0.183861,9.201216 7.664859,21.984038 12.322267,29.539059 3.84466,6.2366 11.575962,8.56073 17.914061,11.45897 5.846899,2.67362 12.815437,7.25323 19.332036,7.68946 0.167905,0.0114 0.337411,0.0195 0.50586,0.0234 V 99.999947 l -0.54639,-0.157052 C 66.855342,95.288466 63.426934,89.735296 58.482425,86.365221 53.9845,83.299526 48.142691,83.717953 43.48633,80.884755 31.725352,73.728699 33.840654,59.90937 38.666018,49.333974 c -0.220716,0.04724 30.904456,20.728492 30.904456,20.728492 l 1.599301,-0.01761 0.0021,-42.486261 c -8.257683,0.114017 -23.837934,3.355462 -23.837934,3.355462 z" style="fill:#87acc0;fill-opacity:1;stroke:none"/>
     <path d="m 69.570474,70.062466 -5.025703,9.126919 6.121251,12.14458 h 0.50586 V 69.655129 Z" style="fill:#175e84;fill-opacity:1;stroke:none;stroke-width:1.05263;stroke-dasharray:none;paint-order:markers fill stroke"/>
     <path d="m 44.665708,55.999178 c -1.452906,4.976828 -1.396414,10.234231 3.569079,13.275083 2.426089,1.485724 9.847842,2.191257 9.847862,-2.341694 4e-6,-0.960449 -2.509244,-3.048212 -3.329928,-3.875412 0,1.553301 -1.259199,2.8125 -2.8125,2.8125 -1.553301,0 -2.812258,-1.259199 -2.8125,-2.8125 -1.93e-4,-1.237696 0.808306,-2.330207 1.992188,-2.691201 -0.661364,-0.413958 -1.263231,-0.782568 -1.708471,-1.099917 -2.186562,-1.558486 -2.460506,-1.857334 -4.74573,-3.266859 z" style="fill:#0e3f59;fill-opacity:0.807843;stroke-width:1.05263;stroke-dasharray:none;paint-order:markers fill stroke"/>
     <path d="M 68.83334,65.916656 47.333986,30.914056 18.666016,18.666015 Z" style="fill:#ffffff;fill-opacity:0.421875;stroke-width:1.05263;stroke-dasharray:none;paint-order:markers fill stroke"/>
     <path d="m 18.666016,18.666015 c 0,0 51.533582,44.828768 50.167324,47.25064 C 67.174117,68.857846 28.749199,39.602469 28.749199,39.602469 Z" style="fill:#0d354b;fill-opacity:0.604167;stroke-width:1.05263;stroke-dasharray:none;paint-order:markers fill stroke"/>
    </g>
   </g>
  </g>
  </g>
</svg>
